<svg width="128" height="38" viewBox="0 0 128 38" fill="none" xmlns="http://www.w3.org/2000/svg">
<g filter="url(#filter0_d_72_23)">
<path d="M122.707 15.7071C123.098 15.3166 123.098 14.6834 122.707 14.2929L116.343 7.92893C115.953 7.53841 115.319 7.53841 114.929 7.92893C114.538 8.31946 114.538 8.95262 114.929 9.34315L120.586 15L114.929 20.6569C114.538 21.0474 114.538 21.6805 114.929 22.0711C115.319 22.4616 115.953 22.4616 116.343 22.0711L122.707 15.7071ZM4 16H6.95V14H4V16ZM12.85 16H18.75V14H12.85V16ZM24.65 16H30.55V14H24.65V16ZM36.45 16H42.35V14L36.45 14V16ZM48.25 16H54.15V14H48.25V16ZM60.05 16H65.95V14H60.05V16ZM71.85 16H77.75V14H71.85V16ZM83.65 16H89.55V14H83.65V16ZM95.45 16H101.35V14L95.45 14V16ZM107.25 16H113.15V14H107.25V16ZM119.05 16H122V14H119.05V16ZM123.414 16.4142C124.195 15.6332 124.195 14.3668 123.414 13.5858L110.686 0.857864C109.905 0.0768156 108.639 0.0768156 107.858 0.857864C107.077 1.63891 107.077 2.90524 107.858 3.68629L119.172 15L107.858 26.3137C107.077 27.0948 107.077 28.3611 107.858 29.1421C108.639 29.9232 109.905 29.9232 110.686 29.1421L123.414 16.4142ZM4 17H6.95V13H4V17ZM12.85 17H18.75V13H12.85V17ZM24.65 17H30.55V13H24.65V17ZM36.45 17H42.35V13L36.45 13V17ZM48.25 17H54.15V13H48.25V17ZM60.05 17H65.95V13H60.05V17ZM71.85 17L77.75 17V13H71.85V17ZM83.65 17H89.55V13H83.65V17ZM95.45 17H101.35V13H95.45V17ZM107.25 17H113.15V13H107.25V17ZM119.05 17H122V13H119.05V17Z" fill="url(#paint0_linear_72_23)"/>
</g>
<defs>
<filter id="filter0_d_72_23" x="0" y="0.272064" width="128" height="37.4559" filterUnits="userSpaceOnUse" color-interpolation-filters="sRGB">
<feFlood flood-opacity="0" result="BackgroundImageFix"/>
<feColorMatrix in="SourceAlpha" type="matrix" values="0 0 0 0 0 0 0 0 0 0 0 0 0 0 0 0 0 0 127 0" result="hardAlpha"/>
<feOffset dy="4"/>
<feGaussianBlur stdDeviation="2"/>
<feComposite in2="hardAlpha" operator="out"/>
<feColorMatrix type="matrix" values="0 0 0 0 0 0 0 0 0 0 0 0 0 0 0 0 0 0 0.6 0"/>
<feBlend mode="normal" in2="BackgroundImageFix" result="effect1_dropShadow_72_23"/>
<feBlend mode="normal" in="SourceGraphic" in2="effect1_dropShadow_72_23" result="shape"/>
</filter>
<linearGradient id="paint0_linear_72_23" x1="-2.13376e-06" y1="15" x2="122" y2="15.0002" gradientUnits="userSpaceOnUse">
<stop stop-color="#0B1625"/>
<stop offset="0.243101" stop-color="#0177E4"/>
<stop offset="0.508975" stop-color="white"/>
</linearGradient>
</defs>
</svg>
