<svg width="60" height="60" viewBox="0 0 60 60" fill="none" xmlns="http://www.w3.org/2000/svg">
<path d="M0 30C0 13.4315 13.4315 0 30 0V0C46.5685 0 60 13.4315 60 30V30C60 46.5685 46.5685 60 30 60V60C13.4315 60 0 46.5685 0 30V30Z" fill="url(#paint0_linear_94_435)" fill-opacity="0.1"/>
<circle cx="30" cy="30" r="24.5" stroke="url(#paint1_linear_94_435)"/>
<path d="M39.9014 20.9026C38.0488 20.0524 36.0939 19.4455 34.0854 19.0972C34.0672 19.0942 34.0485 19.0968 34.0319 19.1048C34.0153 19.1128 34.0015 19.1258 33.9926 19.1419C33.7408 19.5883 33.4622 20.1722 33.2676 20.6294C31.1026 20.3008 28.9004 20.3008 26.7355 20.6294C26.5184 20.1201 26.2727 19.6235 25.9998 19.1419C25.9906 19.1259 25.9768 19.1131 25.9603 19.1052C25.9437 19.0972 25.9251 19.0944 25.9069 19.0972C23.898 19.4437 21.9427 20.0508 20.0909 20.9026C20.0751 20.9086 20.0618 20.92 20.0534 20.9347C16.3499 26.4686 15.3338 31.8668 15.832 37.1971C15.8338 37.2221 15.8499 37.2471 15.8695 37.2631C18.0262 38.8606 20.4384 40.0803 23.0034 40.8702C23.0215 40.8759 23.0409 40.8757 23.0589 40.8696C23.0769 40.8635 23.0925 40.8519 23.1034 40.8363C23.6534 40.0863 24.1427 39.2952 24.5641 38.4631C24.5729 38.446 24.5759 38.4265 24.5727 38.4075C24.5694 38.3885 24.5602 38.371 24.5462 38.3578C24.537 38.349 24.526 38.3424 24.5141 38.3381C23.7447 38.0424 22.9996 37.6872 22.2855 37.2756C22.2656 37.2643 22.2508 37.2458 22.2441 37.2238C22.2375 37.2019 22.2395 37.1782 22.2498 37.1578C22.2559 37.1445 22.2651 37.1328 22.2766 37.1238C22.4266 37.0113 22.5766 36.8935 22.7195 36.7756C22.7321 36.7655 22.7472 36.759 22.7633 36.7568C22.7793 36.7546 22.7956 36.7568 22.8105 36.7631C27.4873 38.8988 32.5497 38.8988 37.1693 36.7631C37.1847 36.7565 37.2017 36.7541 37.2184 36.7563C37.235 36.7585 37.2508 36.7652 37.2639 36.7756C37.4068 36.8935 37.5568 37.0113 37.7068 37.1238C37.719 37.1327 37.7287 37.1445 37.7352 37.1581C37.7417 37.1716 37.7447 37.1866 37.744 37.2017C37.7433 37.2167 37.7389 37.2313 37.7312 37.2442C37.7234 37.2571 37.7126 37.2679 37.6997 37.2756C36.9872 37.691 36.2411 38.0458 35.4693 38.3363C35.457 38.3408 35.4458 38.3479 35.4366 38.3572C35.4273 38.3664 35.4202 38.3776 35.4158 38.3899C35.4116 38.4018 35.41 38.4145 35.4109 38.4271C35.4118 38.4396 35.4153 38.4519 35.4211 38.4631C35.8497 39.2935 36.3407 40.0863 36.88 40.8363C36.8909 40.8519 36.9065 40.8635 36.9245 40.8696C36.9425 40.8757 36.9619 40.8759 36.98 40.8702C39.5493 40.0828 41.9655 38.8629 44.1246 37.2631C44.1354 37.2556 44.1444 37.2458 44.1509 37.2344C44.1574 37.2229 44.1612 37.2102 44.1621 37.1971C44.7585 31.0346 43.1639 25.6811 39.9371 20.9365C39.9339 20.9287 39.929 20.9216 39.9229 20.9158C39.9167 20.9099 39.9094 20.9054 39.9014 20.9026V20.9026ZM25.2623 33.9507C23.8534 33.9507 22.6945 32.6578 22.6945 31.0721C22.6945 29.4846 23.8319 28.1918 25.2623 28.1918C26.7033 28.1918 27.8515 29.4954 27.8301 31.0721C27.8301 32.6578 26.6926 33.9507 25.2623 33.9507ZM34.755 33.9507C33.3479 33.9507 32.1872 32.6578 32.1872 31.0721C32.1872 29.4846 33.3247 28.1918 34.755 28.1918C36.1961 28.1918 37.3461 29.4954 37.3229 31.0721C37.3229 32.6578 36.1961 33.9507 34.755 33.9507Z" fill="white"/>
<path d="M30 59.5C29.3509 59.5 28.7068 59.479 28.0683 59.4378L28.0038 60.4357C28.6638 60.4783 29.3294 60.5 30 60.5V59.5ZM24.2422 58.9385C22.968 58.6864 21.7234 58.3523 20.514 57.9418L20.1926 58.8888C21.4433 59.3133 22.7305 59.6588 24.0481 59.9195L24.2422 58.9385ZM16.9499 56.4639C15.7915 55.8916 14.6761 55.2454 13.6097 54.5315L13.0534 55.3624C14.1558 56.1005 15.3091 56.7687 16.507 57.3605L16.9499 56.4639ZM10.5493 52.1798C9.58145 51.3303 8.66965 50.4186 7.8202 49.4507L7.06862 50.1103C7.94669 51.1108 8.8892 52.0533 9.88966 52.9314L10.5493 52.1798ZM5.46852 46.3903C4.7546 45.3239 4.1084 44.2085 3.53605 43.0501L2.63951 43.493C3.23134 44.6909 3.89948 45.8442 4.63755 46.9466L5.46852 46.3903ZM2.05815 39.486C1.64771 38.2766 1.31359 37.032 1.06152 35.7578L0.0805284 35.9519C0.341195 37.2695 0.686731 38.5567 1.1112 39.8074L2.05815 39.486ZM0.562219 31.9317C0.520956 31.2932 0.5 30.6491 0.5 30H-0.5C-0.5 30.6706 -0.478349 31.3362 -0.4357 31.9962L0.562219 31.9317ZM0.5 30C0.5 29.3509 0.520956 28.7068 0.562218 28.0683L-0.4357 28.0038C-0.478349 28.6638 -0.5 29.3294 -0.5 30H0.5ZM1.06152 24.2422C1.31359 22.968 1.64771 21.7234 2.05815 20.514L1.1112 20.1926C0.68673 21.4433 0.341194 22.7305 0.0805277 24.0481L1.06152 24.2422ZM3.53605 16.9499C4.1084 15.7915 4.7546 14.6761 5.46852 13.6097L4.63755 13.0534C3.89948 14.1558 3.23134 15.3091 2.63951 16.507L3.53605 16.9499ZM7.8202 10.5493C8.66965 9.58145 9.58145 8.66965 10.5493 7.8202L9.88966 7.06862C8.8892 7.94669 7.94669 8.8892 7.06862 9.88966L7.8202 10.5493ZM13.6097 5.46852C14.6761 4.7546 15.7915 4.1084 16.9499 3.53605L16.507 2.63951C15.3091 3.23134 14.1558 3.89948 13.0534 4.63755L13.6097 5.46852ZM20.514 2.05815C21.7234 1.64771 22.968 1.31359 24.2422 1.06152L24.0481 0.0805284C22.7305 0.341195 21.4433 0.686731 20.1926 1.1112L20.514 2.05815ZM28.0683 0.562219C28.7068 0.520956 29.3509 0.5 30 0.5V-0.5C29.3294 -0.5 28.6638 -0.478349 28.0038 -0.4357L28.0683 0.562219ZM30 0.5C30.6491 0.5 31.2932 0.520956 31.9317 0.562218L31.9962 -0.4357C31.3362 -0.478349 30.6706 -0.5 30 -0.5V0.5ZM35.7578 1.06152C37.032 1.31359 38.2766 1.64771 39.486 2.05815L39.8074 1.1112C38.5567 0.68673 37.2695 0.341194 35.9519 0.0805277L35.7578 1.06152ZM43.0501 3.53605C44.2085 4.1084 45.3239 4.7546 46.3903 5.46852L46.9466 4.63755C45.8442 3.89948 44.6909 3.23134 43.493 2.63951L43.0501 3.53605ZM49.4507 7.8202C50.4186 8.66965 51.3303 9.58145 52.1798 10.5493L52.9314 9.88966C52.0533 8.8892 51.1108 7.94669 50.1103 7.06862L49.4507 7.8202ZM54.5315 13.6097C55.2454 14.6761 55.8916 15.7915 56.464 16.9499L57.3605 16.507C56.7687 15.3091 56.1005 14.1558 55.3624 13.0534L54.5315 13.6097ZM57.9418 20.514C58.3523 21.7234 58.6864 22.968 58.9385 24.2422L59.9195 24.0481C59.6588 22.7305 59.3133 21.4433 58.8888 20.1926L57.9418 20.514ZM59.4378 28.0683C59.479 28.7068 59.5 29.3509 59.5 30H60.5C60.5 29.3294 60.4783 28.6638 60.4357 28.0038L59.4378 28.0683ZM59.5 30C59.5 30.6491 59.479 31.2932 59.4378 31.9317L60.4357 31.9962C60.4783 31.3362 60.5 30.6706 60.5 30H59.5ZM58.9385 35.7578C58.6864 37.032 58.3523 38.2766 57.9418 39.486L58.8888 39.8074C59.3133 38.5567 59.6588 37.2695 59.9195 35.9519L58.9385 35.7578ZM56.4639 43.0501C55.8916 44.2085 55.2454 45.3239 54.5315 46.3903L55.3624 46.9466C56.1005 45.8442 56.7687 44.6909 57.3605 43.493L56.4639 43.0501ZM52.1798 49.4507C51.3303 50.4186 50.4186 51.3303 49.4507 52.1798L50.1103 52.9314C51.1108 52.0533 52.0533 51.1108 52.9314 50.1103L52.1798 49.4507ZM46.3903 54.5315C45.3239 55.2454 44.2085 55.8916 43.0501 56.464L43.493 57.3605C44.6909 56.7687 45.8442 56.1005 46.9466 55.3624L46.3903 54.5315ZM39.486 57.9418C38.2766 58.3523 37.032 58.6864 35.7578 58.9385L35.9519 59.9195C37.2695 59.6588 38.5567 59.3133 39.8074 58.8888L39.486 57.9418ZM31.9317 59.4378C31.2932 59.479 30.6491 59.5 30 59.5V60.5C30.6706 60.5 31.3362 60.4783 31.9962 60.4357L31.9317 59.4378ZM30 59C29.3617 59 28.7283 58.9794 28.1005 58.9388L27.9715 60.9347C28.6422 60.978 29.3186 61 30 61V59ZM24.3392 58.448C23.0867 58.2002 21.8634 57.8718 20.6747 57.4684L20.0319 59.3623C21.3033 59.7938 22.6117 60.145 23.9511 60.41L24.3392 58.448ZM17.1714 56.0157C16.0327 55.4531 14.9362 54.8178 13.8878 54.116L12.7752 55.7779C13.8957 56.5281 15.0679 57.2072 16.2855 57.8088L17.1714 56.0157ZM10.8791 51.804C9.92757 50.9689 9.03113 50.0724 8.19599 49.1209L6.69283 50.4402C7.58521 51.4569 8.54307 52.4148 9.55984 53.3072L10.8791 51.804ZM5.88401 46.1122C5.18216 45.0638 4.54693 43.9673 3.98432 42.8286L2.19124 43.7145C2.79281 44.9321 3.47191 46.1043 4.22207 47.2248L5.88401 46.1122ZM2.53163 39.3253C2.12821 38.1366 1.79978 36.9133 1.55201 35.6608L-0.409966 36.0489C-0.145002 37.3883 0.206239 38.6967 0.637728 39.9681L2.53163 39.3253ZM1.06118 31.8995C1.02061 31.2717 1 30.6383 1 30H-1C-1 30.6814 -0.978002 31.3578 -0.934659 32.0285L1.06118 31.8995ZM1 30C1 29.3617 1.02061 28.7283 1.06118 28.1005L-0.934659 27.9715C-0.978002 28.6422 -1 29.3186 -1 30H1ZM1.55201 24.3392C1.79978 23.0867 2.1282 21.8634 2.53163 20.6747L0.637728 20.0319C0.206239 21.3033 -0.145002 22.6117 -0.409966 23.9511L1.55201 24.3392ZM3.98432 17.1714C4.54693 16.0327 5.18216 14.9362 5.88401 13.8878L4.22207 12.7752C3.47192 13.8957 2.79281 15.0679 2.19124 16.2855L3.98432 17.1714ZM8.19599 10.8791C9.03113 9.92757 9.92757 9.03113 10.8791 8.19599L9.55984 6.69283C8.54307 7.58521 7.58521 8.54307 6.69283 9.55984L8.19599 10.8791ZM13.8878 5.88401C14.9362 5.18216 16.0327 4.54693 17.1714 3.98432L16.2855 2.19124C15.0679 2.79281 13.8957 3.47191 12.7752 4.22207L13.8878 5.88401ZM20.6747 2.53163C21.8634 2.12821 23.0867 1.79978 24.3392 1.55201L23.9511 -0.409966C22.6117 -0.145002 21.3033 0.206239 20.0319 0.637728L20.6747 2.53163ZM28.1005 1.06118C28.7283 1.02061 29.3617 1 30 1V-1C29.3186 -1 28.6422 -0.978002 27.9715 -0.934659L28.1005 1.06118ZM30 1C30.6383 1 31.2717 1.02061 31.8995 1.06118L32.0285 -0.934659C31.3578 -0.978002 30.6814 -1 30 -1V1ZM35.6608 1.55201C36.9133 1.79978 38.1366 2.1282 39.3253 2.53163L39.9681 0.637728C38.6967 0.206239 37.3883 -0.145002 36.0489 -0.409966L35.6608 1.55201ZM42.8286 3.98432C43.9673 4.54693 45.0638 5.18216 46.1122 5.88401L47.2248 4.22207C46.1043 3.47192 44.9321 2.79281 43.7145 2.19124L42.8286 3.98432ZM49.1209 8.19599C50.0724 9.03113 50.9689 9.92757 51.804 10.8791L53.3072 9.55984C52.4148 8.54307 51.4569 7.58521 50.4402 6.69283L49.1209 8.19599ZM54.116 13.8878C54.8178 14.9362 55.4531 16.0327 56.0157 17.1714L57.8088 16.2855C57.2072 15.0679 56.5281 13.8957 55.7779 12.7752L54.116 13.8878ZM57.4684 20.6747C57.8718 21.8634 58.2002 23.0867 58.448 24.3392L60.41 23.9511C60.145 22.6117 59.7938 21.3033 59.3623 20.0319L57.4684 20.6747ZM58.9388 28.1005C58.9794 28.7283 59 29.3617 59 30H61C61 29.3186 60.978 28.6422 60.9347 27.9715L58.9388 28.1005ZM59 30C59 30.6383 58.9794 31.2717 58.9388 31.8995L60.9347 32.0285C60.978 31.3578 61 30.6814 61 30H59ZM58.448 35.6608C58.2002 36.9133 57.8718 38.1366 57.4684 39.3253L59.3623 39.9681C59.7938 38.6967 60.145 37.3883 60.41 36.0489L58.448 35.6608ZM56.0157 42.8286C55.4531 43.9673 54.8178 45.0638 54.116 46.1122L55.7779 47.2248C56.5281 46.1043 57.2072 44.9321 57.8088 43.7145L56.0157 42.8286ZM51.804 49.1209C50.9689 50.0724 50.0724 50.9689 49.1209 51.804L50.4402 53.3072C51.4569 52.4148 52.4148 51.4569 53.3072 50.4402L51.804 49.1209ZM46.1122 54.116C45.0638 54.8178 43.9673 55.4531 42.8286 56.0157L43.7145 57.8088C44.9321 57.2072 46.1043 56.5281 47.2248 55.7779L46.1122 54.116ZM39.3253 57.4684C38.1366 57.8718 36.9133 58.2002 35.6608 58.448L36.0489 60.41C37.3883 60.145 38.6967 59.7938 39.9681 59.3623L39.3253 57.4684ZM31.8995 58.9388C31.2717 58.9794 30.6383 59 30 59V61C30.6814 61 31.3578 60.978 32.0285 60.9347L31.8995 58.9388Z" fill="url(#paint2_linear_94_435)"/>
<defs>
<linearGradient id="paint0_linear_94_435" x1="30" y1="11.4286" x2="30" y2="60" gradientUnits="userSpaceOnUse">
<stop stop-color="#0182F9"/>
<stop offset="1" stop-color="white" stop-opacity="0"/>
</linearGradient>
<linearGradient id="paint1_linear_94_435" x1="30" y1="5" x2="30" y2="55" gradientUnits="userSpaceOnUse">
<stop stop-color="white"/>
<stop offset="1" stop-color="white" stop-opacity="0"/>
</linearGradient>
<linearGradient id="paint2_linear_94_435" x1="30" y1="-9.64286" x2="30" y2="60" gradientUnits="userSpaceOnUse">
<stop stop-color="#0182F9"/>
<stop offset="1" stop-color="white" stop-opacity="0.2"/>
</linearGradient>
</defs>
</svg>
