<svg width="275" height="147" viewBox="0 0 275 147" fill="none" xmlns="http://www.w3.org/2000/svg">
<g filter="url(#filter0_d_144_194)">
<path d="M59.8387 45H215V87H30L59.8387 45Z" fill="url(#paint0_linear_144_194)" fill-opacity="0.5" shape-rendering="crispEdges"/>
<path d="M30.9686 86.5L60.0968 45.5H214.5V86.5H30.9686Z" stroke="url(#paint1_linear_144_194)" shape-rendering="crispEdges"/>
</g>
<path d="M78.036 71V61.06H82.25C82.7073 61.06 83.1273 61.1533 83.51 61.34C83.8927 61.5267 84.224 61.7787 84.504 62.096C84.7933 62.4133 85.0173 62.768 85.176 63.16C85.3347 63.552 85.414 63.9533 85.414 64.364C85.414 64.924 85.2833 65.456 85.022 65.96C84.7607 66.464 84.4013 66.8747 83.944 67.192C83.4867 67.5093 82.9453 67.668 82.32 67.668H79.968V71H78.036ZM79.968 65.974H82.208C82.4413 65.974 82.6513 65.9087 82.838 65.778C83.0247 65.6473 83.174 65.4607 83.286 65.218C83.398 64.966 83.454 64.6813 83.454 64.364C83.454 64.0187 83.3887 63.7247 83.258 63.482C83.1367 63.2393 82.9733 63.0573 82.768 62.936C82.572 62.8147 82.3573 62.754 82.124 62.754H79.968V65.974ZM86.5627 60.78H88.4387V68.648C88.4387 68.984 88.4947 69.2127 88.6067 69.334C88.7187 69.446 88.8727 69.502 89.0687 69.502C89.218 69.502 89.372 69.4833 89.5307 69.446C89.6893 69.4087 89.8293 69.362 89.9507 69.306L90.2027 70.734C89.9507 70.8553 89.6567 70.9487 89.3207 71.014C88.9847 71.0793 88.6813 71.112 88.4107 71.112C87.8227 71.112 87.3653 70.958 87.0387 70.65C86.7213 70.3327 86.5627 69.8847 86.5627 69.306V60.78ZM90.516 68.83C90.516 68.354 90.6467 67.9387 90.908 67.584C91.1787 67.22 91.552 66.94 92.028 66.744C92.504 66.548 93.05 66.45 93.666 66.45C93.974 66.45 94.2867 66.4733 94.604 66.52C94.9213 66.5667 95.1967 66.6413 95.43 66.744V66.352C95.43 65.8853 95.29 65.526 95.01 65.274C94.7393 65.022 94.3333 64.896 93.792 64.896C93.3907 64.896 93.008 64.966 92.644 65.106C92.28 65.246 91.8973 65.4513 91.496 65.722L90.894 64.49C91.3793 64.1727 91.874 63.9347 92.378 63.776C92.8913 63.6173 93.428 63.538 93.988 63.538C95.0333 63.538 95.8453 63.7993 96.424 64.322C97.012 64.8447 97.306 65.5913 97.306 66.562V68.9C97.306 69.096 97.3387 69.236 97.404 69.32C97.4787 69.404 97.5953 69.4553 97.754 69.474V71C97.586 71.028 97.432 71.0513 97.292 71.07C97.1613 71.0887 97.0493 71.098 96.956 71.098C96.5827 71.098 96.298 71.014 96.102 70.846C95.9153 70.678 95.7987 70.4727 95.752 70.23L95.71 69.852C95.3927 70.2627 94.996 70.58 94.52 70.804C94.044 71.028 93.5587 71.14 93.064 71.14C92.5787 71.14 92.14 71.042 91.748 70.846C91.3653 70.6407 91.062 70.3653 90.838 70.02C90.6233 69.6653 90.516 69.2687 90.516 68.83ZM95.08 69.208C95.1827 69.096 95.2667 68.984 95.332 68.872C95.3973 68.76 95.43 68.6573 95.43 68.564V67.822C95.206 67.7287 94.9633 67.6587 94.702 67.612C94.4407 67.556 94.1933 67.528 93.96 67.528C93.4747 67.528 93.0733 67.6353 92.756 67.85C92.448 68.0553 92.294 68.3307 92.294 68.676C92.294 68.8627 92.3453 69.04 92.448 69.208C92.5507 69.376 92.7 69.5113 92.896 69.614C93.092 69.7167 93.3253 69.768 93.596 69.768C93.876 69.768 94.1513 69.7167 94.422 69.614C94.6927 69.502 94.912 69.3667 95.08 69.208ZM98.9396 72.428C99.1076 72.4653 99.2616 72.498 99.4016 72.526C99.551 72.554 99.677 72.568 99.7796 72.568C99.957 72.568 100.102 72.5213 100.214 72.428C100.335 72.344 100.452 72.1853 100.564 71.952C100.676 71.728 100.792 71.4107 100.914 71L98.0156 63.664H99.9616L101.936 69.082L103.672 63.664H105.464L102.384 72.456C102.272 72.7827 102.099 73.0767 101.866 73.338C101.642 73.6087 101.357 73.8187 101.012 73.968C100.676 74.1267 100.298 74.206 99.8776 74.206C99.7283 74.206 99.579 74.192 99.4296 74.164C99.2803 74.1453 99.117 74.108 98.9396 74.052V72.428ZM109.071 65.96C109.071 65.3533 109.178 64.7607 109.393 64.182C109.617 63.594 109.939 63.062 110.359 62.586C110.779 62.1007 111.292 61.718 111.899 61.438C112.505 61.1487 113.196 61.004 113.971 61.004C114.885 61.004 115.674 61.2047 116.337 61.606C117.009 62.0073 117.508 62.53 117.835 63.174L116.351 64.196C116.183 63.8227 115.963 63.5287 115.693 63.314C115.422 63.09 115.133 62.936 114.825 62.852C114.517 62.7587 114.213 62.712 113.915 62.712C113.429 62.712 113.005 62.81 112.641 63.006C112.286 63.202 111.987 63.4587 111.745 63.776C111.502 64.0933 111.32 64.448 111.199 64.84C111.087 65.232 111.031 65.624 111.031 66.016C111.031 66.4547 111.101 66.8793 111.241 67.29C111.381 67.6913 111.577 68.0507 111.829 68.368C112.09 68.676 112.398 68.9233 112.753 69.11C113.117 69.2873 113.513 69.376 113.943 69.376C114.251 69.376 114.563 69.3247 114.881 69.222C115.198 69.1193 115.492 68.956 115.763 68.732C116.033 68.508 116.243 68.2187 116.393 67.864L117.975 68.774C117.779 69.2687 117.457 69.6887 117.009 70.034C116.57 70.3793 116.075 70.6407 115.525 70.818C114.974 70.9953 114.428 71.084 113.887 71.084C113.177 71.084 112.529 70.9393 111.941 70.65C111.353 70.3513 110.844 69.9593 110.415 69.474C109.995 68.9793 109.663 68.4287 109.421 67.822C109.187 67.206 109.071 66.5853 109.071 65.96ZM122.449 71.14C121.852 71.14 121.315 71.042 120.839 70.846C120.363 70.6407 119.957 70.3607 119.621 70.006C119.294 69.6513 119.042 69.2453 118.865 68.788C118.688 68.3307 118.599 67.85 118.599 67.346C118.599 66.8327 118.688 66.3473 118.865 65.89C119.042 65.4327 119.294 65.0267 119.621 64.672C119.957 64.3173 120.363 64.042 120.839 63.846C121.315 63.6407 121.852 63.538 122.449 63.538C123.046 63.538 123.578 63.6407 124.045 63.846C124.521 64.042 124.927 64.3173 125.263 64.672C125.599 65.0267 125.851 65.4327 126.019 65.89C126.196 66.3473 126.285 66.8327 126.285 67.346C126.285 67.85 126.196 68.3307 126.019 68.788C125.851 69.2453 125.599 69.6513 125.263 70.006C124.936 70.3607 124.535 70.6407 124.059 70.846C123.583 71.042 123.046 71.14 122.449 71.14ZM120.531 67.346C120.531 67.7753 120.615 68.158 120.783 68.494C120.951 68.8207 121.18 69.0773 121.469 69.264C121.758 69.4507 122.085 69.544 122.449 69.544C122.804 69.544 123.126 69.4507 123.415 69.264C123.704 69.068 123.933 68.8067 124.101 68.48C124.278 68.144 124.367 67.7613 124.367 67.332C124.367 66.912 124.278 66.534 124.101 66.198C123.933 65.862 123.704 65.6007 123.415 65.414C123.126 65.2273 122.804 65.134 122.449 65.134C122.085 65.134 121.758 65.232 121.469 65.428C121.18 65.6147 120.951 65.876 120.783 66.212C120.615 66.5387 120.531 66.9167 120.531 67.346ZM138.947 71H137.071V66.884C137.071 66.3053 136.969 65.8807 136.763 65.61C136.567 65.33 136.292 65.19 135.937 65.19C135.573 65.19 135.223 65.3347 134.887 65.624C134.561 65.904 134.327 66.2727 134.187 66.73V71H132.311V66.884C132.311 66.296 132.209 65.8667 132.003 65.596C131.807 65.3253 131.532 65.19 131.177 65.19C130.813 65.19 130.463 65.33 130.127 65.61C129.801 65.89 129.567 66.2587 129.427 66.716V71H127.551V63.664H129.245V65.022C129.525 64.546 129.899 64.182 130.365 63.93C130.832 63.6687 131.369 63.538 131.975 63.538C132.582 63.538 133.053 63.6873 133.389 63.986C133.735 64.2847 133.954 64.6533 134.047 65.092C134.346 64.588 134.724 64.2053 135.181 63.944C135.648 63.6733 136.171 63.538 136.749 63.538C137.207 63.538 137.575 63.622 137.855 63.79C138.145 63.9487 138.369 64.168 138.527 64.448C138.686 64.7187 138.793 65.0267 138.849 65.372C138.915 65.7173 138.947 66.0673 138.947 66.422V71ZM140.581 71V63.664H142.457V71H140.581ZM140.581 62.642V60.78H142.457V62.642H140.581ZM150.967 71H149.091V66.884C149.091 66.296 148.988 65.8667 148.783 65.596C148.578 65.3253 148.293 65.19 147.929 65.19C147.677 65.19 147.42 65.2553 147.159 65.386C146.907 65.5167 146.678 65.6987 146.473 65.932C146.268 66.156 146.118 66.4173 146.025 66.716V71H144.149V63.664H145.843V65.022C146.03 64.7047 146.268 64.4387 146.557 64.224C146.846 64 147.178 63.832 147.551 63.72C147.934 63.5987 148.335 63.538 148.755 63.538C149.212 63.538 149.586 63.622 149.875 63.79C150.174 63.9487 150.398 64.168 150.547 64.448C150.706 64.7187 150.813 65.0267 150.869 65.372C150.934 65.7173 150.967 66.0673 150.967 66.422V71ZM155.468 71.042C154.983 71.042 154.535 70.9487 154.124 70.762C153.723 70.566 153.373 70.2953 153.074 69.95C152.785 69.6047 152.561 69.208 152.402 68.76C152.243 68.312 152.164 67.836 152.164 67.332C152.164 66.8 152.248 66.3053 152.416 65.848C152.584 65.3907 152.817 64.9893 153.116 64.644C153.424 64.2893 153.783 64.0187 154.194 63.832C154.614 63.636 155.076 63.538 155.58 63.538C156.149 63.538 156.649 63.6687 157.078 63.93C157.507 64.182 157.862 64.5227 158.142 64.952V63.664H159.78V70.65C159.78 71.378 159.603 71.9987 159.248 72.512C158.903 73.0347 158.422 73.4313 157.806 73.702C157.19 73.982 156.49 74.122 155.706 74.122C154.913 74.122 154.241 73.9867 153.69 73.716C153.139 73.4547 152.668 73.0813 152.276 72.596L153.298 71.602C153.578 71.9473 153.928 72.218 154.348 72.414C154.777 72.61 155.23 72.708 155.706 72.708C156.107 72.708 156.471 72.6333 156.798 72.484C157.134 72.344 157.4 72.12 157.596 71.812C157.801 71.5133 157.904 71.126 157.904 70.65V69.726C157.661 70.146 157.316 70.4727 156.868 70.706C156.429 70.93 155.963 71.042 155.468 71.042ZM156.098 69.544C156.303 69.544 156.499 69.5113 156.686 69.446C156.873 69.3807 157.045 69.292 157.204 69.18C157.363 69.068 157.503 68.9373 157.624 68.788C157.745 68.6293 157.839 68.4707 157.904 68.312V66.562C157.792 66.2727 157.633 66.0207 157.428 65.806C157.232 65.5913 157.008 65.428 156.756 65.316C156.513 65.1947 156.257 65.134 155.986 65.134C155.697 65.134 155.435 65.1947 155.202 65.316C154.969 65.4373 154.768 65.61 154.6 65.834C154.432 66.0487 154.301 66.2913 154.208 66.562C154.124 66.8233 154.082 67.0987 154.082 67.388C154.082 67.6867 154.133 67.9667 154.236 68.228C154.339 68.4893 154.479 68.718 154.656 68.914C154.843 69.11 155.057 69.264 155.3 69.376C155.552 69.488 155.818 69.544 156.098 69.544ZM170.938 63.664C170.873 63.5987 170.752 63.51 170.574 63.398C170.406 63.286 170.196 63.1787 169.944 63.076C169.702 62.9733 169.436 62.8847 169.146 62.81C168.857 62.726 168.563 62.684 168.264 62.684C167.742 62.684 167.345 62.782 167.074 62.978C166.813 63.174 166.682 63.4493 166.682 63.804C166.682 64.0747 166.766 64.2893 166.934 64.448C167.102 64.6067 167.354 64.742 167.69 64.854C168.026 64.966 168.446 65.0873 168.95 65.218C169.604 65.3767 170.168 65.5727 170.644 65.806C171.13 66.03 171.498 66.3287 171.75 66.702C172.012 67.066 172.142 67.5513 172.142 68.158C172.142 68.69 172.044 69.1473 171.848 69.53C171.652 69.9033 171.382 70.2067 171.036 70.44C170.691 70.6733 170.299 70.846 169.86 70.958C169.422 71.0607 168.955 71.112 168.46 71.112C167.966 71.112 167.471 71.0607 166.976 70.958C166.482 70.8553 166.006 70.7107 165.548 70.524C165.091 70.328 164.671 70.0947 164.288 69.824L165.142 68.158C165.226 68.242 165.376 68.354 165.59 68.494C165.805 68.6247 166.066 68.76 166.374 68.9C166.682 69.0307 167.018 69.1427 167.382 69.236C167.746 69.3293 168.115 69.376 168.488 69.376C169.011 69.376 169.408 69.2873 169.678 69.11C169.949 68.9327 170.084 68.6807 170.084 68.354C170.084 68.0553 169.977 67.822 169.762 67.654C169.548 67.486 169.249 67.3413 168.866 67.22C168.484 67.0893 168.031 66.9493 167.508 66.8C166.883 66.6227 166.36 66.4267 165.94 66.212C165.52 65.988 165.208 65.708 165.002 65.372C164.797 65.036 164.694 64.616 164.694 64.112C164.694 63.4307 164.853 62.8613 165.17 62.404C165.497 61.9373 165.936 61.5873 166.486 61.354C167.037 61.1113 167.648 60.99 168.32 60.99C168.787 60.99 169.226 61.0413 169.636 61.144C170.056 61.2467 170.448 61.382 170.812 61.55C171.176 61.718 171.503 61.9 171.792 62.096L170.938 63.664ZM176.808 71.14C176.211 71.14 175.674 71.042 175.198 70.846C174.722 70.6407 174.316 70.3607 173.98 70.006C173.654 69.6513 173.402 69.2453 173.224 68.788C173.047 68.3307 172.958 67.85 172.958 67.346C172.958 66.8327 173.047 66.3473 173.224 65.89C173.402 65.4327 173.654 65.0267 173.98 64.672C174.316 64.3173 174.722 64.042 175.198 63.846C175.674 63.6407 176.211 63.538 176.808 63.538C177.406 63.538 177.938 63.6407 178.404 63.846C178.88 64.042 179.286 64.3173 179.622 64.672C179.958 65.0267 180.21 65.4327 180.378 65.89C180.556 66.3473 180.644 66.8327 180.644 67.346C180.644 67.85 180.556 68.3307 180.378 68.788C180.21 69.2453 179.958 69.6513 179.622 70.006C179.296 70.3607 178.894 70.6407 178.418 70.846C177.942 71.042 177.406 71.14 176.808 71.14ZM174.89 67.346C174.89 67.7753 174.974 68.158 175.142 68.494C175.31 68.8207 175.539 69.0773 175.828 69.264C176.118 69.4507 176.444 69.544 176.808 69.544C177.163 69.544 177.485 69.4507 177.774 69.264C178.064 69.068 178.292 68.8067 178.46 68.48C178.638 68.144 178.726 67.7613 178.726 67.332C178.726 66.912 178.638 66.534 178.46 66.198C178.292 65.862 178.064 65.6007 177.774 65.414C177.485 65.2273 177.163 65.134 176.808 65.134C176.444 65.134 176.118 65.232 175.828 65.428C175.539 65.6147 175.31 65.876 175.142 66.212C174.974 66.5387 174.89 66.9167 174.89 67.346ZM185.299 71.14C184.701 71.14 184.165 71.042 183.689 70.846C183.213 70.6407 182.807 70.3607 182.471 70.006C182.144 69.6513 181.892 69.2453 181.715 68.788C181.537 68.3307 181.449 67.85 181.449 67.346C181.449 66.8327 181.537 66.3473 181.715 65.89C181.892 65.4327 182.144 65.0267 182.471 64.672C182.807 64.3173 183.213 64.042 183.689 63.846C184.165 63.6407 184.701 63.538 185.299 63.538C185.896 63.538 186.428 63.6407 186.895 63.846C187.371 64.042 187.777 64.3173 188.113 64.672C188.449 65.0267 188.701 65.4327 188.869 65.89C189.046 66.3473 189.135 66.8327 189.135 67.346C189.135 67.85 189.046 68.3307 188.869 68.788C188.701 69.2453 188.449 69.6513 188.113 70.006C187.786 70.3607 187.385 70.6407 186.909 70.846C186.433 71.042 185.896 71.14 185.299 71.14ZM183.381 67.346C183.381 67.7753 183.465 68.158 183.633 68.494C183.801 68.8207 184.029 69.0773 184.319 69.264C184.608 69.4507 184.935 69.544 185.299 69.544C185.653 69.544 185.975 69.4507 186.265 69.264C186.554 69.068 186.783 68.8067 186.951 68.48C187.128 68.144 187.217 67.7613 187.217 67.332C187.217 66.912 187.128 66.534 186.951 66.198C186.783 65.862 186.554 65.6007 186.265 65.414C185.975 65.2273 185.653 65.134 185.299 65.134C184.935 65.134 184.608 65.232 184.319 65.428C184.029 65.6147 183.801 65.876 183.633 66.212C183.465 66.5387 183.381 66.9167 183.381 67.346ZM197.219 71H195.343V66.884C195.343 66.296 195.24 65.8667 195.035 65.596C194.83 65.3253 194.545 65.19 194.181 65.19C193.929 65.19 193.672 65.2553 193.411 65.386C193.159 65.5167 192.93 65.6987 192.725 65.932C192.52 66.156 192.37 66.4173 192.277 66.716V71H190.401V63.664H192.095V65.022C192.282 64.7047 192.52 64.4387 192.809 64.224C193.098 64 193.43 63.832 193.803 63.72C194.186 63.5987 194.587 63.538 195.007 63.538C195.464 63.538 195.838 63.622 196.127 63.79C196.426 63.9487 196.65 64.168 196.799 64.448C196.958 64.7187 197.065 65.0267 197.121 65.372C197.186 65.7173 197.219 66.0673 197.219 66.422V71Z" fill="#0182F9"/>
<defs>
<filter id="filter0_d_144_194" x="0" y="-15" width="305" height="162" filterUnits="userSpaceOnUse" color-interpolation-filters="sRGB">
<feFlood flood-opacity="0" result="BackgroundImageFix"/>
<feColorMatrix in="SourceAlpha" type="matrix" values="0 0 0 0 0 0 0 0 0 0 0 0 0 0 0 0 0 0 127 0" result="hardAlpha"/>
<feOffset dx="30"/>
<feGaussianBlur stdDeviation="30"/>
<feComposite in2="hardAlpha" operator="out"/>
<feColorMatrix type="matrix" values="0 0 0 0 0.00406247 0 0 0 0 0.50895 0 0 0 0 0.975 0 0 0 0.5 0"/>
<feBlend mode="normal" in2="BackgroundImageFix" result="effect1_dropShadow_144_194"/>
<feBlend mode="normal" in="SourceGraphic" in2="effect1_dropShadow_144_194" result="shape"/>
</filter>
<linearGradient id="paint0_linear_144_194" x1="209.778" y1="66" x2="27.8557" y2="71.5618" gradientUnits="userSpaceOnUse">
<stop stop-color="#0182F9"/>
<stop offset="1" stop-color="#0182F9" stop-opacity="0"/>
</linearGradient>
<linearGradient id="paint1_linear_144_194" x1="281.391" y1="66" x2="19.6502" y2="72.6752" gradientUnits="userSpaceOnUse">
<stop stop-color="white"/>
<stop offset="1" stop-color="white" stop-opacity="0"/>
</linearGradient>
</defs>
</svg>
