<svg width="45" height="45" viewBox="0 0 45 45" fill="none" xmlns="http://www.w3.org/2000/svg">
<circle cx="23.625" cy="22.5" r="12.375" fill="white"/>
<path d="M22.5 41.2499C20.037 41.2524 17.5977 40.7691 15.3218 39.8277C13.0458 38.8863 10.9778 37.5053 9.23626 35.7637C7.49467 34.0221 6.11365 31.9541 5.17224 29.6782C4.23084 27.4022 3.74754 24.9629 3.75001 22.4999V22.1249C3.82502 18.4488 4.97869 14.8758 7.06761 11.85C9.15653 8.82414 12.0886 6.47888 15.4994 5.10568C18.9102 3.73248 22.6494 3.3919 26.2522 4.12626C29.855 4.86062 33.1625 6.63755 35.7638 9.23619C38.3882 11.8585 40.1757 15.2004 40.9001 18.839C41.6245 22.4776 41.2532 26.2493 39.8331 29.6767C38.4131 33.1042 36.0082 36.0334 32.9227 38.0935C29.8373 40.1536 26.21 41.2521 22.5 41.2499ZM22.5 25.1437L27.3563 29.9999L30 27.3562L25.1438 22.4999L30 17.6437L27.3563 14.9999L22.5 19.8562L17.6438 14.9999L15 17.6437L19.8563 22.4999L15 27.3562L17.6438 29.9999L22.5 25.1456V25.1437Z" fill="#339CDB"/>
</svg>
