<svg width="45" height="45" viewBox="0 0 45 45" fill="none" xmlns="http://www.w3.org/2000/svg">
<g opacity="0.8">
<rect x="15" y="11" width="17" height="22" fill="white"/>
<path d="M22.5 45C10.0748 45 0 34.9252 0 22.5C0 10.0748 10.0748 0 22.5 0C34.9252 0 45 10.0748 45 22.5C45 34.9252 34.9252 45 22.5 45ZM29.7372 22.1535L18.7684 14.173C18.7083 14.1298 18.6374 14.104 18.5636 14.0984C18.4897 14.0929 18.4158 14.1078 18.3499 14.1415C18.2839 14.1753 18.2286 14.2265 18.1899 14.2897C18.1512 14.3528 18.1307 14.4254 18.1306 14.4994V30.4503C18.1303 30.5245 18.1506 30.5973 18.1893 30.6607C18.2279 30.7241 18.2833 30.7755 18.3493 30.8093C18.4154 30.8431 18.4895 30.858 18.5635 30.8522C18.6374 30.8465 18.7084 30.8204 18.7684 30.7768L29.7372 22.8013C29.789 22.7647 29.8313 22.7161 29.8604 22.6598C29.8896 22.6034 29.9048 22.5409 29.9048 22.4774C29.9048 22.4139 29.8896 22.3514 29.8604 22.295C29.8313 22.2387 29.789 22.1901 29.7372 22.1535Z" fill="#0182F9"/>
</g>
</svg>
